PathFileType	4	(X/Y/Z)	D:\TRACE\spot_10-12-23\spot_body_motion_3_4-platform.trc
DataRate	CameraRate	NumFrames	NumMarkers	Units	OrigDataRate	OrigDataStartFrame	OrigNumFrames
100.00	100.00	      50	5	mm	100.00	876	      7000
Frame#	Time	Left_Front			Right_Front			Left_Aft			Right_Aft			Post			
		X1	Y1	Z1	X2	Y2	Z2	X3	Y3	Z3	X4	Y4	Z4	X5	Y5	Z5	

876	8.750	-764.40216	-9.41367	-645.20569	808.17725	-4.53883	-638.22589	-681.43958	16.21533	492.38657	735.93652	22.86176	578.59637	17.96739	720.55243	-980.58514	
877	8.760	-764.59320	-8.88232	-645.16736	808.02490	-4.25164	-638.15405	-681.49335	16.07005	492.47879	735.78870	22.64985	578.68903	18.03991	721.03949	-980.22327	
878	8.770	-764.72406	-8.50090	-645.18604	807.77942	-3.97230	-638.10217	-681.67029	15.75208	492.59070	735.67383	22.42514	578.76605	17.84493	721.50226	-979.79071	
879	8.780	-764.90076	-8.18427	-645.08881	807.49677	-3.63544	-638.03528	-681.93201	15.37437	492.68976	735.31091	22.07292	578.89130	17.69126	722.04883	-979.15155	
880	8.790	-765.09418	-7.89948	-644.97308	807.27911	-3.36134	-638.00439	-682.06940	15.11284	492.79886	735.04993	21.84446	579.03033	17.53514	722.57465	-978.45343	
881	8.800	-765.05969	-7.93841	-644.76581	807.03180	-3.03794	-638.09015	-682.37885	14.86145	492.94067	734.81940	21.66837	579.12292	17.66778	723.05475	-977.89069	
882	8.810	-765.42822	-7.26570	-644.72998	806.89960	-2.58374	-637.95288	-682.48114	14.62396	493.06992	734.66516	21.44831	579.15277	17.52811	723.57959	-977.54163	
883	8.820	-765.68469	-6.80633	-644.67151	806.82275	-2.06681	-637.82623	-682.57953	14.53010	493.14792	734.46808	21.12395	579.15967	17.17331	724.33655	-977.05573	
884	8.830	-765.81250	-6.45442	-644.57855	806.60217	-1.49445	-637.70490	-682.83838	14.24982	493.22617	734.26093	20.76158	579.26648	16.84729	724.87836	-976.61420	
885	8.840	-765.95807	-6.16555	-644.47815	806.51514	-1.11521	-637.59900	-683.13885	13.98881	493.28842	734.16162	20.34902	579.39557	16.73510	725.53229	-976.10052	
886	8.850	-766.57495	-5.45890	-644.08344	806.44250	-0.89585	-637.56689	-683.39685	13.78878	493.45267	733.92059	19.85287	579.49957	16.49612	726.09229	-975.77423	
887	8.860	-766.74200	-5.06346	-644.02728	806.20898	-0.59336	-637.53461	-683.57159	13.53096	493.51709	733.78723	19.64634	579.52960	16.19708	726.69659	-975.22717	
888	8.870	-766.57452	-4.80406	-644.27570	805.94507	-0.17041	-637.38245	-683.72198	13.23158	493.63110	733.65692	19.38828	579.54248	15.97528	727.18097	-974.81750	
889	8.880	-766.75726	-4.26545	-644.12341	805.82947	0.22716	-637.20172	-683.90369	12.91903	493.65964	733.44849	19.17898	579.68774	15.78311	727.95306	-974.38501	
890	8.890	-767.01044	-3.82087	-643.98822	805.51611	0.71376	-637.08405	-684.06836	12.54113	493.76563	733.07733	18.73009	579.92615	15.40722	728.71460	-973.73395	
891	8.900	-767.23804	-3.50748	-643.86145	805.37054	1.02036	-637.05011	-684.22266	12.15158	493.83884	732.84509	18.27931	580.09503	15.45591	729.06036	-973.06995	
892	8.910	-767.13232	-3.65315	-643.79401	805.24219	1.34288	-636.96985	-684.29614	11.88448	493.96542	732.76129	17.95642	580.15234	15.47114	729.50055	-972.38440	
893	8.920	-767.13336	-3.25209	-643.87341	805.12775	1.92069	-636.87396	-684.40631	11.70587	493.99753	732.67413	17.71092	580.27014	15.50213	730.18079	-971.87805	
894	8.930	-767.60223	-2.42570	-643.63446	805.05042	2.38562	-636.85095	-684.57806	11.48104	494.06308	732.58704	17.49399	580.35284	15.33916	730.87708	-971.18982	
895	8.940	-767.48077	-2.08102	-643.68262	804.85565	2.81279	-636.77814	-684.75598	11.20902	494.14874	732.52448	17.13087	580.45245	15.13651	731.41101	-970.68042	
896	8.950	-767.75006	-1.65508	-643.58148	804.53735	3.24978	-636.63953	-684.88049	10.83694	494.60873	732.35144	16.81803	580.61456	14.73807	731.96832	-970.14117	
897	8.960	-767.76086	-1.40187	-643.59845	804.49115	3.58199	-636.39929	-685.03613	10.53067	494.78027	732.24799	16.41025	580.75812	14.42649	732.62085	-969.73932	
898	8.970	-768.08502	-0.82892	-643.40656	804.16296	3.89851	-636.36682	-685.26764	10.42196	494.56241	732.07727	16.02410	580.85840	14.16677	733.37579	-969.24536	
899	8.980	-768.66248	-0.13526	-642.98572	804.08337	4.28242	-636.27075	-685.43347	10.10716	494.63086	731.92560	15.64479	580.90912	13.96519	734.12274	-968.70618	
900	8.990	-768.67670	0.27191	-642.89648	804.00909	4.62784	-636.23071	-685.56738	9.74324	494.87018	731.81653	15.28139	581.00415	13.87441	734.68781	-968.23712	
901	9.000	-768.53571	0.42071	-643.00482	803.93347	5.17855	-636.07294	-685.69403	9.40002	494.97150	731.71881	14.98577	581.08698	14.00356	735.21698	-967.57507	
902	9.010	-768.87329	0.83685	-642.80255	803.85187	5.75971	-635.92096	-685.83221	8.98708	495.17691	731.58087	14.69395	581.18347	13.99125	735.84430	-967.05231	
903	9.020	-769.01508	1.33334	-642.73962	803.74829	6.20186	-635.78638	-685.95258	8.71019	495.35147	731.48511	14.43294	581.21423	13.95560	736.56390	-966.38971	
904	9.030	-769.31281	1.97361	-642.55121	803.37988	6.61218	-635.80017	-686.05139	8.56240	495.50317	731.30334	14.07462	581.30267	13.65065	737.17194	-965.89063	
905	9.040	-769.37701	2.27988	-642.40894	803.31750	6.84103	-635.79620	-686.26422	8.42650	495.36295	731.21613	13.72935	581.42218	13.68216	737.67761	-965.23151	
906	9.050	-769.38818	2.72198	-642.41785	803.33472	7.15848	-635.67847	-686.35144	8.20200	495.38513	731.07977	13.34153	581.50165	13.43600	738.38031	-964.65759	
907	9.060	-769.42291	3.13711	-642.33459	803.31696	7.57370	-635.47260	-686.47632	7.84967	495.46613	730.98987	12.98193	581.57190	13.30365	738.94568	-964.21222	
908	9.070	-769.41724	3.52354	-642.24817	803.09674	8.04949	-635.40533	-686.54749	7.52180	495.54541	730.87567	12.58224	581.71716	13.14790	739.51990	-963.68982	
909	9.080	-769.36621	3.79879	-642.11346	803.02087	8.52633	-635.25006	-686.60468	7.13122	495.69690	730.73206	12.31658	581.81793	13.09011	740.13690	-963.10718	
910	9.090	-769.43719	4.11485	-642.02527	802.94110	8.94816	-635.24072	-686.63324	6.83673	495.84338	730.74878	12.09531	581.91077	13.21828	740.77484	-962.40149	
911	9.100	-769.37122	4.22152	-641.88635	803.02374	9.29885	-635.21851	-686.69775	6.59910	495.96582	730.72345	11.83143	582.02740	13.11721	741.20380	-961.98761	
912	9.110	-769.55878	4.75592	-641.87067	802.81378	9.70413	-635.19867	-686.75134	6.34963	496.11591	730.59857	11.30023	582.10004	12.94633	741.88330	-961.50513	
913	9.120	-769.73407	5.36992	-641.74292	802.85693	10.10467	-634.90344	-686.86157	6.18273	496.11429	730.47253	10.90430	582.21033	12.77063	742.67657	-960.90845	
914	9.130	-769.97430	5.94284	-641.67462	802.64270	10.49414	-634.79065	-686.90302	5.86140	496.16727	730.35980	10.58765	582.39020	12.62698	743.32153	-960.35376	
915	9.140	-769.90527	6.40053	-641.62830	802.57251	10.92352	-634.65704	-686.97974	5.62796	496.21161	730.26422	10.36851	582.49530	12.47180	743.75043	-960.02716	
916	9.150	-769.82373	6.52234	-641.67975	802.57721	11.29370	-634.70300	-687.01636	5.30238	496.31918	730.14575	9.96744	582.58350	12.46736	744.24463	-959.61194	
917	9.160	-769.99872	6.94579	-641.35065	802.46759	11.70498	-634.65833	-686.99536	4.94933	496.41867	730.19519	9.72996	582.66180	12.51733	745.03888	-958.97559	
918	9.170	-769.90747	7.21707	-641.37341	802.42242	12.03968	-634.60553	-687.02808	4.64443	496.52032	730.22583	9.52382	582.74463	12.47940	745.59143	-958.30621	
919	9.180	-770.15002	7.79540	-641.12103	802.40948	12.38636	-634.52197	-687.05042	4.37982	496.57697	730.27997	9.30182	582.81354	12.45506	745.99011	-957.67572	
920	9.190	-770.33948	8.13010	-640.98810	802.48694	12.68743	-634.32855	-687.12982	4.21459	496.68475	730.24182	8.95999	582.91046	12.38176	746.39514	-957.23071	
921	9.200	-770.27075	8.57017	-640.95844	802.49371	13.15899	-634.10925	-687.19397	3.97125	496.72162	730.25031	8.49159	583.01593	12.55740	746.95044	-956.66260	
922	9.210	-770.14673	8.95904	-641.02179	802.48383	13.46269	-634.11090	-687.25000	3.81032	496.83771	730.24609	8.13181	583.09583	12.33922	747.62476	-956.25287	
923	9.220	-770.22443	9.25177	-640.93433	802.45526	13.85888	-634.06696	-687.33661	3.71636	496.86136	730.22809	7.85032	583.16132	12.39176	748.07629	-955.77917	
924	9.230	-770.27832	9.54247	-640.87860	802.29980	14.32518	-634.04913	-687.31628	3.46175	496.94568	730.15979	7.64851	583.23029	12.28382	748.57135	-955.40863	
925	9.240	-770.34937	10.03237	-640.68774	802.26184	14.67042	-633.94861	-687.27563	3.12313	497.03918	730.07959	7.34248	583.30219	12.30430	749.26727	-955.03741	
